<?xml version="1.0" encoding="utf-8"?>
<!-- Generator: Adobe Illustrator 17.0.0, SVG Export Plug-In . SVG Version: 6.00 Build 0)  -->
<!DOCTYPE svg PUBLIC "-//W3C//DTD SVG 1.1//EN" "http://www.w3.org/Graphics/SVG/1.1/DTD/svg11.dtd">
<svg version="1.1" id="Layer_1" xmlns="http://www.w3.org/2000/svg" xmlns:xlink="http://www.w3.org/1999/xlink" x="0px" y="0px"
	 width="50px" height="50px" viewBox="0 0 50 50" enable-background="new 0 0 50 50" xml:space="preserve">
<path fill="#9A59A4" d="M32.017,26.947c3.152-2.093,5.237-5.672,5.237-9.731c0-6.439-5.238-11.677-11.677-11.677
	s-11.677,5.238-11.677,11.677c0,4.06,2.084,7.638,5.237,9.731c-7.133,2.632-12.243,9.479-12.243,17.516h3.114
	c0-8.585,6.984-15.57,15.57-15.57c8.585,0,15.57,6.984,15.57,15.57h3.114C44.26,36.426,39.15,29.579,32.017,26.947z M25.576,25.778
	c-4.722,0-8.563-3.841-8.563-8.563s3.842-8.563,8.563-8.563s8.563,3.841,8.563,8.563S30.298,25.778,25.576,25.778z"/>
</svg>
