<svg width="37" height="39" viewBox="0 0 37 39" fill="none" xmlns="http://www.w3.org/2000/svg">
<path d="M18.4805 9.33995C13.4267 9.33995 9.35026 13.7287 9.35026 19.1697C9.35026 24.6107 13.4267 28.9994 18.4805 28.9994C23.5343 28.9994 27.6107 24.6107 27.6107 19.1697C27.6107 13.7287 23.5343 9.33995 18.4805 9.33995ZM18.4805 25.5603C15.2146 25.5603 12.5447 22.6943 12.5447 19.1697C12.5447 15.645 15.2066 12.7791 18.4805 12.7791C21.7544 12.7791 24.4164 15.645 24.4164 19.1697C24.4164 22.6943 21.7464 25.5603 18.4805 25.5603V25.5603ZM30.1138 8.93787C30.1138 10.2126 29.1603 11.2306 27.9842 11.2306C26.8002 11.2306 25.8546 10.204 25.8546 8.93787C25.8546 7.67172 26.8082 6.64512 27.9842 6.64512C29.1603 6.64512 30.1138 7.67172 30.1138 8.93787ZM36.1609 11.2648C36.0258 8.19358 35.3742 5.47308 33.2844 3.23166C31.2025 0.990244 28.6755 0.288732 25.8228 0.134742C22.8827 -0.0449139 14.0703 -0.0449139 11.1302 0.134742C8.28546 0.280177 5.75855 0.981689 3.66869 3.22311C1.57882 5.46452 0.935178 8.18502 0.792146 11.2563C0.625274 14.4216 0.625274 23.9092 0.792146 27.0745C0.927232 30.1458 1.57882 32.8663 3.66869 35.1077C5.75855 37.3491 8.27752 38.0506 11.1302 38.2046C14.0703 38.3843 22.8827 38.3843 25.8228 38.2046C28.6755 38.0592 31.2025 37.3577 33.2844 35.1077C35.3663 32.8663 36.0179 30.1458 36.1609 27.0745C36.3278 23.9092 36.3278 14.4302 36.1609 11.2648V11.2648ZM32.3626 30.4709C31.7428 32.1477 30.5429 33.4395 28.9775 34.1153C26.6334 35.1162 21.071 34.8853 18.4805 34.8853C15.89 34.8853 10.3197 35.1077 7.9835 34.1153C6.42604 33.448 5.22615 32.1562 4.5984 30.4709C3.66869 27.9471 3.88324 21.9586 3.88324 19.1697C3.88324 16.3807 3.67664 10.3837 4.5984 7.86849C5.21821 6.1917 6.41809 4.89989 7.9835 4.22404C10.3276 3.22311 15.89 3.45409 18.4805 3.45409C21.071 3.45409 26.6413 3.23166 28.9775 4.22404C30.535 4.89134 31.7349 6.18315 32.3626 7.86849C33.2923 10.3922 33.0778 16.3807 33.0778 19.1697C33.0778 21.9586 33.2923 27.9557 32.3626 30.4709Z" fill="black"/>
</svg>
