<svg width="36" height="39" viewBox="0 0 36 39" fill="none" xmlns="http://www.w3.org/2000/svg">
<path d="M7.97295 38.3394H0.588351V12.7421H7.97295V38.3394ZM4.27667 9.25043C1.91532 9.25043 0 7.14514 0 4.60339C1.69016e-08 3.3825 0.450577 2.21161 1.25261 1.3483C2.05464 0.484999 3.14243 0 4.27667 0C5.41092 0 6.49871 0.484999 7.30074 1.3483C8.10277 2.21161 8.55335 3.3825 8.55335 4.60339C8.55335 7.14514 6.63723 9.25043 4.27667 9.25043ZM35.6111 38.3394H28.2424V25.8788C28.2424 22.9091 28.1868 19.1008 24.403 19.1008C20.5637 19.1008 19.9753 22.3272 19.9753 25.6648V38.3394H12.5987V12.7421H19.6811V16.2338H19.7845C20.7704 14.2227 23.1786 12.1003 26.7716 12.1003C34.2452 12.1003 35.6191 17.3977 35.6191 24.2784V38.3394H35.6111Z" fill="black"/>
</svg>
