<svg width="45" height="39" viewBox="0 0 45 39" fill="none" xmlns="http://www.w3.org/2000/svg">
<path d="M40.1443 9.55485C40.1722 9.97417 40.1722 10.3936 40.1722 10.8129C40.1722 23.6026 31.0986 38.3394 14.5148 38.3394C9.40558 38.3394 4.65941 36.7518 0.666992 33.9963C1.39291 34.0861 2.09081 34.116 2.84466 34.116C7.06034 34.116 10.9411 32.5885 14.0401 29.9826C10.0756 29.8927 6.75328 27.1071 5.60859 23.2732C6.16701 23.363 6.72535 23.4229 7.31171 23.4229C8.12133 23.4229 8.93103 23.3031 9.68479 23.0935C5.55282 22.1948 2.45373 18.301 2.45373 13.5985V13.4787C3.65419 14.1976 5.05025 14.6469 6.52984 14.7067C4.1009 12.9694 2.50959 10.0041 2.50959 6.64942C2.50959 4.85229 2.9562 3.2049 3.73798 1.76716C8.1771 7.63787 14.8497 11.4717 22.3319 11.8911C22.1924 11.1723 22.1086 10.4235 22.1086 9.67471C22.1086 4.34308 26.1289 0 31.1264 0C33.7228 0 36.068 1.16815 37.7152 3.05517C39.7532 2.63585 41.7076 1.82709 43.4386 0.718868C42.7685 2.96537 41.3446 4.85238 39.4741 6.0504C41.2889 5.84084 43.0478 5.30157 44.667 4.55283C43.4388 6.46972 41.9031 8.17695 40.1443 9.55485V9.55485Z" fill="black"/>
</svg>
